<svg width="17" height="13" viewBox="0 0 17 13" fill="none" xmlns="http://www.w3.org/2000/svg">
<path d="M15.6424 0.652344C16.1346 0.625 16.5721 1.00781 16.5447 1.47266V10.7148C16.5447 11.1523 16.1893 11.5352 15.7244 11.5625C14.3846 11.6172 11.6502 11.8906 9.76348 12.8477C9.4627 12.9844 9.10723 12.793 9.10723 12.4648V2.51172C9.10723 2.375 9.18926 2.23828 9.32598 2.15625C11.158 1.03516 14.1385 0.734375 15.6424 0.652344ZM8.04082 2.15625C8.17754 2.23828 8.25957 2.375 8.25957 2.51172V12.4648C8.25957 12.793 7.9041 12.9844 7.60332 12.8477C5.7166 11.8906 2.98223 11.6172 1.64238 11.5625C1.17754 11.5352 0.82207 11.1523 0.82207 10.7148V1.47266C0.82207 1.00781 1.23223 0.625 1.72441 0.652344C3.22832 0.734375 6.20879 1.03516 8.04082 2.15625Z" fill="#422AD5"/>
</svg>
