<svg width="28" height="28" viewBox="0 0 28 28" fill="none" xmlns="http://www.w3.org/2000/svg">
<path d="M9.02344 22.2656C9.02344 22.375 8.91406 22.4297 8.75 22.4297C8.58594 22.4844 8.47656 22.375 8.47656 22.2656C8.47656 22.1562 8.58594 22.0469 8.75 22.0469C8.91406 22.0469 9.02344 22.1562 9.02344 22.2656ZM7.32812 21.9922C7.38281 21.8828 7.54688 21.8281 7.71094 21.8828C7.875 21.9375 7.92969 22.0469 7.92969 22.1562C7.875 22.2656 7.71094 22.3203 7.60156 22.2656C7.4375 22.2656 7.32812 22.1016 7.32812 21.9922ZM9.78906 21.9375C9.89844 21.8828 10.0625 21.9922 10.0625 22.1016C10.1172 22.2109 10.0078 22.2656 9.84375 22.3203C9.67969 22.375 9.51562 22.3203 9.51562 22.2109C9.51562 22.0469 9.625 21.9375 9.78906 21.9375ZM13.3438 0.9375C20.9453 0.9375 27.125 6.73438 27.125 14.2812C27.125 20.3516 23.4062 25.5469 17.9375 27.3516C17.2266 27.5156 16.9531 27.0781 16.9531 26.6953C16.9531 26.2578 17.0078 23.9609 17.0078 22.1562C17.0078 20.8438 16.5703 20.0234 16.0781 19.5859C19.1406 19.2578 22.3672 18.8203 22.3672 13.5703C22.3672 12.0391 21.8203 11.3281 20.9453 10.3438C21.0547 9.96094 21.5469 8.53906 20.7812 6.625C19.6328 6.24219 17.0078 8.10156 17.0078 8.10156C15.9141 7.77344 14.7656 7.66406 13.5625 7.66406C12.4141 7.66406 11.2656 7.77344 10.1719 8.10156C10.1719 8.10156 7.49219 6.29688 6.39844 6.625C5.63281 8.53906 6.07031 9.96094 6.23438 10.3438C5.35938 11.3281 4.92188 12.0391 4.92188 13.5703C4.92188 18.8203 8.03906 19.2578 11.1016 19.5859C10.6641 19.9688 10.3359 20.5703 10.2266 21.4453C9.40625 21.8281 7.4375 22.4297 6.23438 20.2969C5.46875 18.9844 4.10156 18.875 4.10156 18.875C2.78906 18.875 4.04688 19.75 4.04688 19.75C4.92188 20.1328 5.52344 21.7188 5.52344 21.7188C6.34375 24.1797 10.1719 23.3594 10.1719 23.3594C10.1719 24.5078 10.1719 26.3672 10.1719 26.75C10.1719 27.0781 9.95312 27.5156 9.24219 27.4062C3.77344 25.5469 0 20.3516 0 14.2812C0 6.73438 5.79688 0.9375 13.3438 0.9375ZM5.30469 19.8047C5.35938 19.75 5.46875 19.8047 5.57812 19.8594C5.6875 19.9688 5.6875 20.1328 5.63281 20.1875C5.52344 20.2422 5.41406 20.1875 5.30469 20.1328C5.25 20.0234 5.19531 19.8594 5.30469 19.8047ZM4.70312 19.3672C4.75781 19.3125 4.8125 19.3125 4.92188 19.3672C5.03125 19.4219 5.08594 19.4766 5.08594 19.5312C5.03125 19.6406 4.92188 19.6406 4.8125 19.5859C4.70312 19.5312 4.64844 19.4766 4.70312 19.3672ZM6.45312 21.3359C6.5625 21.2266 6.72656 21.2812 6.83594 21.3906C6.94531 21.5 6.94531 21.6641 6.89062 21.7188C6.83594 21.8281 6.67188 21.7734 6.5625 21.6641C6.39844 21.5547 6.39844 21.3906 6.45312 21.3359ZM5.85156 20.5156C5.96094 20.4609 6.07031 20.5156 6.17969 20.625C6.23438 20.7344 6.23438 20.8984 6.17969 20.9531C6.07031 21.0078 5.96094 20.9531 5.85156 20.8438C5.74219 20.7344 5.74219 20.5703 5.85156 20.5156Z" fill="#18181B"/>
</svg>
