<svg width="25" height="25" viewBox="0 0 25 25" fill="none" xmlns="http://www.w3.org/2000/svg">
<path d="M12.75 6.21094C16.1953 6.21094 19.0391 9.05469 19.0391 12.5C19.0391 16 16.1953 18.7891 12.75 18.7891C9.25 18.7891 6.46094 16 6.46094 12.5C6.46094 9.05469 9.25 6.21094 12.75 6.21094ZM12.75 16.6016C14.9922 16.6016 16.7969 14.7969 16.7969 12.5C16.7969 10.2578 14.9922 8.45312 12.75 8.45312C10.4531 8.45312 8.64844 10.2578 8.64844 12.5C8.64844 14.7969 10.5078 16.6016 12.75 16.6016ZM20.7344 5.99219C20.7344 6.8125 20.0781 7.46875 19.2578 7.46875C18.4375 7.46875 17.7812 6.8125 17.7812 5.99219C17.7812 5.17188 18.4375 4.51562 19.2578 4.51562C20.0781 4.51562 20.7344 5.17188 20.7344 5.99219ZM24.8906 7.46875C25 9.49219 25 15.5625 24.8906 17.5859C24.7812 19.5547 24.3438 21.25 22.9219 22.7266C21.5 24.1484 19.75 24.5859 17.7812 24.6953C15.7578 24.8047 9.6875 24.8047 7.66406 24.6953C5.69531 24.5859 4 24.1484 2.52344 22.7266C1.10156 21.25 0.664062 19.5547 0.554688 17.5859C0.445312 15.5625 0.445312 9.49219 0.554688 7.46875C0.664062 5.5 1.10156 3.75 2.52344 2.32812C4 0.90625 5.69531 0.46875 7.66406 0.359375C9.6875 0.25 15.7578 0.25 17.7812 0.359375C19.75 0.46875 21.5 0.90625 22.9219 2.32812C24.3438 3.75 24.7812 5.5 24.8906 7.46875ZM22.2656 19.7188C22.9219 18.1328 22.7578 14.3047 22.7578 12.5C22.7578 10.75 22.9219 6.92188 22.2656 5.28125C21.8281 4.24219 21.0078 3.36719 19.9688 2.98438C18.3281 2.32812 14.5 2.49219 12.75 2.49219C10.9453 2.49219 7.11719 2.32812 5.53125 2.98438C4.4375 3.42188 3.61719 4.24219 3.17969 5.28125C2.52344 6.92188 2.6875 10.75 2.6875 12.5C2.6875 14.3047 2.52344 18.1328 3.17969 19.7188C3.61719 20.8125 4.4375 21.6328 5.53125 22.0703C7.11719 22.7266 10.9453 22.5625 12.75 22.5625C14.5 22.5625 18.3281 22.7266 19.9688 22.0703C21.0078 21.6328 21.8828 20.8125 22.2656 19.7188Z" fill="#18181B"/>
</svg>
