<svg width="31" height="21" viewBox="0 0 31 21" fill="none" xmlns="http://www.w3.org/2000/svg">
<path d="M30.0234 3.33594C30.6797 5.63281 30.6797 10.5547 30.6797 10.5547C30.6797 10.5547 30.6797 15.4219 30.0234 17.7734C29.6953 19.0859 28.6562 20.0703 27.3984 20.3984C25.0469 21 15.75 21 15.75 21C15.75 21 6.39844 21 4.04688 20.3984C2.78906 20.0703 1.75 19.0859 1.42188 17.7734C0.765625 15.4219 0.765625 10.5547 0.765625 10.5547C0.765625 10.5547 0.765625 5.63281 1.42188 3.33594C1.75 2.02344 2.78906 0.984375 4.04688 0.65625C6.39844 0 15.75 0 15.75 0C15.75 0 25.0469 0 27.3984 0.65625C28.6562 0.984375 29.6953 2.02344 30.0234 3.33594ZM12.6875 14.9844L20.4531 10.5547L12.6875 6.125V14.9844Z" fill="#18181B"/>
</svg>
